<?xml version="1.0" standalone="no"?>
<!DOCTYPE svg PUBLIC "-//W3C//DTD SVG 20010904//EN"
 "http://www.w3.org/TR/2001/REC-SVG-20010904/DTD/svg10.dtd">
<svg version="1.0" xmlns="http://www.w3.org/2000/svg"
 width="825.000000pt" height="723.000000pt" viewBox="0 0 825.000000 723.000000"
 preserveAspectRatio="xMidYMid meet">

<g transform="translate(0.000000,723.000000) scale(0.100000,-0.100000)"
fill="#000000" stroke="none">
<path d="M4160 7064 c-520 -85 -1111 -181 -1313 -214 -557 -91 -777 -155
-1122 -325 -795 -390 -1397 -1126 -1620 -1977 -70 -269 -97 -486 -97 -773 0
-355 48 -653 162 -995 255 -766 786 -1365 1670 -1882 291 -170 932 -498 1188
-607 524 -224 1076 -324 1552 -280 181 16 1469 228 1516 249 54 23 119 82 148
134 13 23 174 475 357 1006 313 908 333 970 337 1047 4 72 1 89 -23 140 -14
32 -35 67 -46 79 l-19 20 123 61 c617 308 1055 897 1179 1583 25 144 36 463
19 606 -38 335 -158 674 -332 944 -302 469 -777 812 -1312 949 -195 50 -289
63 -512 68 -231 6 -363 -7 -555 -52 -154 -36 -161 -37 -95 -14 93 31 211 60
319 79 l100 17 -95 55 c-426 249 -400 237 -509 237 -47 -1 -428 -58 -1020
-155z m2080 -389 c120 -17 273 -53 375 -88 l70 -24 111 -385 111 -386 -223
-223 -222 -222 -387 60 c-212 34 -387 62 -389 64 -2 2 -67 128 -144 280 l-142
276 102 149 c55 82 157 231 225 332 l124 182 142 0 c78 0 189 -7 247 -15z
m-2418 -1115 c-345 -616 -629 -1120 -632 -1120 -3 0 -30 150 -59 333 -29 182
-55 333 -56 335 -8 9 -327 -55 -412 -83 -737 -246 -1101 -1061 -793 -1777 89
-207 234 -388 423 -530 147 -109 296 -178 485 -225 95 -24 127 -27 282 -27
l175 -1 856 139 857 140 86 -40 c47 -21 86 -44 86 -50 0 -15 -440 -1288 -448
-1296 -11 -10 -1229 -206 -1367 -219 -149 -14 -460 -6 -605 16 -761 117 -1420
537 -1836 1170 -286 435 -431 923 -432 1450 0 708 276 1375 778 1875 211 210
423 361 695 495 302 149 463 196 941 275 774 126 1580 258 1591 259 6 1 -271
-503 -615 -1119z m1067 385 c178 -8 325 -15 326 -17 1 -2 63 -123 139 -270
l136 -267 -176 -343 c-98 -189 -178 -344 -178 -345 -4 -6 -622 -81 -627 -75
-4 4 -113 150 -244 325 l-237 317 32 92 c63 181 154 353 274 516 l60 82 86 0
c47 0 231 -7 409 -15z m2561 -413 l385 -108 24 -59 c65 -163 111 -431 111
-643 l0 -127 -337 -222 -336 -221 -281 140 c-155 77 -282 141 -282 142 -1 0
-29 172 -63 381 l-60 380 222 223 c122 122 224 222 227 222 3 0 178 -49 390
-108z m-2016 -1345 l310 -303 -40 -294 -39 -294 -370 -148 -370 -149 -42 22
c-90 49 -224 158 -358 293 -129 130 -267 303 -280 351 -4 13 49 155 141 380
80 198 148 362 150 364 4 4 535 78 574 80 8 0 154 -136 324 -302z m1770 -296
c3 -42 11 -223 18 -404 11 -319 11 -327 -8 -342 -74 -58 -257 -173 -349 -218
-135 -67 -301 -130 -329 -125 -12 3 -164 109 -338 237 -235 172 -318 238 -318
253 0 24 68 542 75 576 4 18 72 55 353 196 l347 174 271 -136 272 -136 6 -75z"/>
</g>
</svg>
