<?xml version="1.0" standalone="no"?>
<!DOCTYPE svg PUBLIC "-//W3C//DTD SVG 20010904//EN"
 "http://www.w3.org/TR/2001/REC-SVG-20010904/DTD/svg10.dtd">
<svg version="1.0" xmlns="http://www.w3.org/2000/svg"
 width="976.000000pt" height="299.000000pt" viewBox="0 0 976.000000 299.000000"
 preserveAspectRatio="xMidYMid meet">

<g transform="translate(0.000000,299.000000) scale(0.100000,-0.100000)"
fill="#000000" stroke="none">
<path d="M722 2785 c-185 -40 -300 -152 -331 -319 -7 -36 -11 -195 -11 -393
l0 -333 30 0 c26 0 30 -4 32 -27 3 -49 1 -86 -5 -153 l-7 -65 14 70 c35 185
165 323 346 368 l55 14 5 194 c6 218 12 240 77 280 32 20 51 24 123 24 47 0
104 -3 127 -8 42 -7 43 -7 63 33 27 54 28 156 0 210 -43 85 -141 120 -328 119
-70 0 -155 -7 -190 -14z"/>
<path d="M3892 2219 c-78 -13 -196 -55 -245 -86 -164 -103 -257 -297 -243
-505 17 -252 160 -420 410 -482 144 -37 382 -16 493 43 93 50 93 49 93 310 0
218 0 220 -24 248 l-24 28 -183 3 c-100 2 -193 1 -206 -3 -55 -13 -78 -106
-47 -185 l16 -40 94 0 94 0 0 -81 0 -80 -35 -15 c-45 -18 -118 -18 -186 2 -71
21 -149 98 -173 171 -19 58 -23 172 -7 230 50 187 281 269 488 174 40 -19 79
-31 87 -28 28 11 56 70 56 116 0 81 -51 130 -170 165 -68 20 -217 28 -288 15z"/>
<path d="M7058 2220 c-220 -40 -334 -167 -314 -351 7 -72 32 -122 83 -171 49
-46 87 -66 253 -127 144 -53 180 -75 180 -114 0 -113 -241 -126 -396 -20 l-38
25 -38 -40 c-43 -46 -53 -77 -43 -129 21 -115 222 -186 457 -162 206 21 328
108 359 257 24 117 -16 233 -104 300 -68 52 -107 71 -252 121 -66 23 -128 50
-138 59 -29 26 -19 72 23 97 51 29 192 27 275 -4 95 -36 91 -36 119 5 18 27
26 52 26 82 0 82 -41 124 -150 156 -65 19 -236 29 -302 16z"/>
<path d="M4878 2205 c-107 -22 -116 -29 -150 -120 -51 -138 -228 -675 -249
-758 -31 -123 -9 -166 98 -186 53 -10 147 -1 163 15 5 5 22 56 36 112 l27 102
160 -2 160 -3 7 -25 c4 -14 16 -53 25 -87 22 -76 46 -100 113 -113 81 -15 202
16 202 51 0 24 -158 581 -227 798 -29 91 -54 153 -68 167 -47 46 -192 70 -297
49z m102 -259 c0 -2 20 -74 45 -160 25 -87 45 -164 45 -172 0 -11 -20 -14
-104 -14 -58 0 -107 3 -109 8 -7 11 103 342 113 342 6 0 10 -2 10 -4z"/>
<path d="M5645 2215 c-5 -2 -31 -6 -58 -10 l-48 -6 3 -484 3 -485 38 -37 37
-38 273 -3 c149 -2 287 0 304 3 23 4 38 15 48 35 18 34 20 114 4 158 l-11 32
-201 2 -202 3 -5 388 -5 389 -23 18 c-30 24 -126 46 -157 35z"/>
<path d="M8810 2210 c-57 -10 -122 -28 -137 -38 -21 -13 -197 -519 -279 -801
-45 -157 -25 -212 87 -230 47 -8 154 0 165 12 3 2 17 52 32 111 l27 106 161 0
162 0 17 -72 c23 -96 39 -124 78 -144 48 -26 153 -23 211 6 32 15 45 27 42 37
-3 8 -26 87 -51 177 -144 527 -220 760 -253 786 -49 39 -182 65 -262 50z m99
-357 c36 -119 61 -215 61 -237 0 -14 -15 -16 -105 -16 -88 0 -105 2 -105 15 0
25 103 335 112 335 4 0 21 -44 37 -97z"/>
<path d="M1978 2203 l-28 -4 0 -556 c0 -473 -2 -560 -15 -587 -24 -49 -50 -61
-140 -61 -44 0 -85 -3 -92 -8 -22 -14 -26 -89 -8 -135 14 -34 26 -46 71 -68
50 -24 61 -26 161 -22 132 5 194 29 252 95 66 74 66 79 66 713 0 620 2 600
-60 626 -32 13 -141 17 -207 7z"/>
<path d="M2408 2203 l-28 -4 0 -353 c0 -280 3 -364 15 -409 53 -205 201 -307
446 -309 117 -1 183 14 273 60 86 45 147 118 176 211 18 58 20 92 20 397 0
228 -4 341 -11 358 -7 14 -26 32 -44 41 -34 15 -129 20 -197 9 l-38 -7 0 -336
c0 -214 -4 -350 -11 -376 -17 -59 -74 -112 -132 -120 -69 -11 -130 15 -165 68
l-27 40 -5 337 c-5 369 -4 360 -67 387 -30 12 -141 16 -205 6z"/>
<path d="M6367 2203 l-28 -4 3 -492 c3 -538 2 -523 63 -549 31 -13 176 -15
215 -3 l21 7 -3 486 c-3 534 -2 522 -63 548 -32 13 -141 17 -208 7z"/>
<path d="M7583 2176 c-26 -22 -28 -30 -28 -93 1 -37 6 -80 13 -95 l12 -28 129
0 130 0 3 -367 c2 -277 6 -374 16 -391 25 -44 59 -56 152 -55 48 0 96 4 108 7
l22 7 0 400 0 399 105 0 c131 0 168 13 185 65 13 41 8 121 -10 155 -10 20 -19
20 -410 20 l-399 0 -28 -24z"/>
<path d="M1326 1645 c11 -30 16 -165 5 -140 -6 16 -9 9 -13 -30 -3 -33 0 -55
9 -66 11 -13 11 -22 -1 -56 -25 -70 -47 -106 -105 -166 -71 -75 -88 -84 -107
-60 -14 17 -14 16 -4 -5 10 -21 7 -24 -34 -41 -24 -11 -65 -23 -90 -26 l-45
-7 -1 -183 c0 -104 -5 -196 -11 -212 -18 -49 -67 -91 -121 -104 -46 -10 -188
-6 -223 7 -18 7 -44 -39 -55 -96 -23 -122 33 -212 155 -249 52 -16 94 -21 189
-21 321 1 485 111 527 355 11 66 7 584 -7 819 -4 78 -45 254 -65 285 -8 13 -9
12 -3 -4z"/>
<path d="M710 1512 c0 -21 -4 -22 -95 -22 -66 0 -95 4 -95 12 0 6 -3 9 -6 5
-9 -9 12 -65 47 -123 l31 -50 59 28 c32 15 63 28 68 28 5 0 6 30 4 68 -5 65
-13 97 -13 54z"/>
<path d="M432 1470 c0 -14 2 -19 5 -12 2 6 2 18 0 25 -3 6 -5 1 -5 -13z"/>
<path d="M1264 1378 l-29 -33 33 29 c30 28 37 36 29 36 -2 0 -16 -15 -33 -32z"/>
<path d="M990 1355 c-41 -24 -83 -44 -93 -44 -14 -1 -16 -5 -7 -20 5 -11 11
-46 12 -80 l3 -60 95 2 c94 1 95 2 115 32 32 47 84 146 74 139 -6 -3 -34 13
-64 35 -30 23 -55 41 -57 40 -2 0 -37 -20 -78 -44z"/>
<path d="M621 1183 c-1 -7 -8 -13 -18 -13 -29 0 12 -35 87 -74 l68 -36 4 25
c4 18 1 25 -10 25 -20 0 -119 58 -125 73 -4 9 -6 9 -6 0z"/>
<path d="M860 1140 c-8 -5 -10 -10 -5 -10 6 0 17 5 25 10 8 5 11 10 5 10 -5 0
-17 -5 -25 -10z"/>
<path d="M788 1113 c7 -3 16 -2 19 1 4 3 -2 6 -13 5 -11 0 -14 -3 -6 -6z"/>
</g>
</svg>
